# xmcd CD database file generated by OrangeCD 5.2
#
# Track frame offsets:
#	150
#	11178
#	23137
#	33550
#	57019
#	77357
#	90967
#	105974
#	120351
#	137726
#	149718
#	160289
#	174359
#	195075
#
# Disc length: 2842 seconds
#
# Revision: 2
# Processed by: cddbd v1.5.2PL0 Copyright (c) Steve Scherf et al.
# Submitted via: OrangeCD 5.2
#
DISCID=a10b180e
DTITLE=Roomful Of Blues - That's Right
DYEAR=2003
DGENRE=Blues
TTITLE0=That's Right
TTITLE1=We Can't Make It
TTITLE2=Shame, Shame, Shame
TTITLE3=How Long Will It Last
TTITLE4=You're Driving Me Crazy
TTITLE5=Ocean Of Tears
TTITLE6=2 Point 9
TTITLE7=I Know Your Wig Is Gone
TTITLE8=I'll Keep On Trying
TTITLE9=Lipstick, Powder And Paint
TTITLE10=I'm Tryin'
TTITLE11=Tennessee Woman
TTITLE12=I Just Got To Know
TTITLE13=Stranger Blues
EXTD=Alligator Records 4889\n© 2003
EXTT0=
EXTT1=
EXTT2=
EXTT3=
EXTT4=
EXTT5=
EXTT6=
EXTT7=
EXTT8=
EXTT9=
EXTT10=
EXTT11=
EXTT12=
EXTT13=
PLAYORDER=
